<svg width="326" height="350" viewBox="0 0 326 350" fill="none" xmlns="http://www.w3.org/2000/svg">
<g clip-path="url(#clip0_634_368)">
<path d="M242.648 63.8871C235.202 58.7776 226.821 55.1854 217.986 53.3156C209.15 51.4459 200.033 51.3352 191.155 52.99C182.277 54.6448 173.812 58.0326 166.243 62.9599C158.675 67.8871 152.151 74.2573 147.045 81.7064L136.447 97.1599L120.994 86.5621C105.953 76.2473 87.4305 72.3298 69.5013 75.6716C51.5722 79.0134 35.7049 89.3406 25.3901 104.381C15.0752 119.422 11.1578 137.945 14.4996 155.874C17.8414 173.803 28.1686 189.67 43.2094 199.985L58.6629 210.583L172.086 288.367L249.87 174.944L260.468 159.491C265.577 152.044 269.169 143.663 271.039 134.828C272.909 125.993 273.02 116.875 271.365 107.997C269.71 99.1189 266.322 90.6537 261.395 83.0852C256.468 75.5166 250.098 68.993 242.648 63.8871V63.8871Z" stroke="#04009A" stroke-width="2" stroke-linecap="round" stroke-linejoin="round"/>
</g>
<defs>
<clipPath id="clip0_634_368">
<rect width="300" height="300" fill="white" transform="translate(-24 54.9697) rotate(-10.5581)"/>
</clipPath>
</defs>
</svg>
