<svg width="107" height="107" viewBox="0 0 107 107" fill="none" xmlns="http://www.w3.org/2000/svg">
<path d="M78.15 34.2875C76.2347 32.3713 73.9606 30.8512 71.4576 29.8141C68.9546 28.777 66.2719 28.2432 63.5625 28.2432C60.8532 28.2432 58.1704 28.777 55.6674 29.8141C53.1645 30.8512 50.8904 32.3713 48.975 34.2875L45 38.2625L41.025 34.2875C37.1562 30.4187 31.9089 28.2452 26.4375 28.2452C20.9661 28.2452 15.7189 30.4187 11.85 34.2875C7.98117 38.1564 5.80768 43.4036 5.80768 48.875C5.80768 54.3464 7.98117 59.5937 11.85 63.4625L15.825 67.4375L45 96.6125L74.175 67.4375L78.15 63.4625C80.0663 61.5472 81.5863 59.2731 82.6234 56.7701C83.6606 54.2671 84.1944 51.5843 84.1944 48.875C84.1944 46.1657 83.6606 43.4829 82.6234 40.9799C81.5863 38.477 80.0663 36.2028 78.15 34.2875V34.2875Z" stroke="white" stroke-width="2" stroke-linecap="round" stroke-linejoin="round"/>
<path d="M98.7834 13.4458C97.2936 11.9554 95.5249 10.7731 93.5781 9.96651C91.6314 9.15987 89.5448 8.74469 87.4375 8.74469C85.3303 8.74469 83.2437 9.15987 81.2969 9.96651C79.3501 10.7731 77.5814 11.9554 76.0917 13.4458L73 16.5375L69.9084 13.4458C66.8993 10.4367 62.818 8.74625 58.5625 8.74625C54.307 8.74625 50.2258 10.4367 47.2167 13.4458C44.2076 16.4549 42.5171 20.5362 42.5171 24.7917C42.5171 29.0472 44.2076 33.1284 47.2167 36.1375L50.3084 39.2292L73 61.9208L95.6917 39.2292L98.7834 36.1375C100.274 34.6478 101.456 32.8791 102.263 30.9323C103.069 28.9855 103.485 26.8989 103.485 24.7917C103.485 22.6844 103.069 20.5978 102.263 18.6511C101.456 16.7043 100.274 14.9356 98.7834 13.4458V13.4458Z" stroke="#D71414" stroke-width="2" stroke-linecap="round" stroke-linejoin="round"/>
</svg>
