<svg width="350" height="424" viewBox="0 0 350 424" fill="none" xmlns="http://www.w3.org/2000/svg">
<g clip-path="url(#clip0_604_380)">
<path d="M266.703 137.942C259.256 132.832 250.876 129.24 242.04 127.37C233.205 125.501 224.088 125.39 215.21 127.045C206.331 128.7 197.866 132.087 190.298 137.015C182.729 141.942 176.206 148.312 171.1 155.761L160.502 171.215L145.048 160.617C130.007 150.302 111.485 146.385 93.556 149.726C75.6268 153.068 59.7595 163.395 49.4447 178.436C39.1299 193.477 35.2125 211.999 38.5542 229.928C41.896 247.858 52.2232 263.725 67.264 274.04L82.7175 284.637L196.14 362.422L273.925 248.999L284.522 233.545C289.632 226.099 293.224 217.718 295.094 208.883C296.964 200.047 297.074 190.93 295.419 182.052C293.765 173.174 290.377 164.708 285.45 157.14C280.522 149.571 274.152 143.048 266.703 137.942V137.942Z" stroke="#04009A" stroke-width="2" stroke-linecap="round" stroke-linejoin="round"/>
</g>
<path d="M315.4 46.1C310.292 40.99 304.228 36.9365 297.554 34.1708C290.879 31.4052 283.725 29.9817 276.5 29.9817C269.275 29.9817 262.121 31.4052 255.446 34.1708C248.772 36.9365 242.708 40.99 237.6 46.1L227 56.7L216.4 46.1C206.083 35.7831 192.09 29.9871 177.5 29.9871C162.91 29.9871 148.917 35.7831 138.6 46.1C128.283 56.4169 122.487 70.4097 122.487 85C122.487 99.5903 128.283 113.583 138.6 123.9L149.2 134.5L227 212.3L304.8 134.5L315.4 123.9C320.51 118.792 324.564 112.728 327.329 106.054C330.095 99.3789 331.518 92.2249 331.518 85C331.518 77.7751 330.095 70.621 327.329 63.9464C324.564 57.2719 320.51 51.2076 315.4 46.1V46.1Z" stroke="#D71414" stroke-width="2" stroke-linecap="round" stroke-linejoin="round"/>
<defs>
<clipPath id="clip0_604_380">
<rect width="300" height="300" fill="white" transform="translate(0.0546875 129.024) rotate(-10.5581)"/>
</clipPath>
</defs>
</svg>
