<svg width="240" height="240" viewBox="0 0 240 240" fill="none" xmlns="http://www.w3.org/2000/svg">
<path d="M208.4 46.1C203.292 40.99 197.228 36.9365 190.554 34.1708C183.879 31.4052 176.725 29.9817 169.5 29.9817C162.275 29.9817 155.121 31.4052 148.446 34.1708C141.772 36.9365 135.708 40.99 130.6 46.1L120 56.7L109.4 46.1C99.0831 35.7831 85.0903 29.9871 70.5 29.9871C55.9096 29.9871 41.9169 35.7831 31.6 46.1C21.283 56.4169 15.4871 70.4097 15.4871 85C15.4871 99.5903 21.283 113.583 31.6 123.9L42.2 134.5L120 212.3L197.8 134.5L208.4 123.9C213.51 118.792 217.564 112.728 220.329 106.054C223.095 99.3789 224.518 92.2249 224.518 85C224.518 77.7751 223.095 70.621 220.329 63.9464C217.564 57.2719 213.51 51.2076 208.4 46.1V46.1Z" stroke="#D71414" stroke-width="2" stroke-linecap="round" stroke-linejoin="round"/>
</svg>
